<svg width="554" height="585" viewBox="0 0 554 585" fill="none" xmlns="http://www.w3.org/2000/svg">
<path d="M62.2475 0.100289L364.108 0.0178175L455.256 0.0492302L483.458 0.000274794C490.131 0.0168131 497.407 -0.134259 503.979 0.787399C516.125 2.3768 527.462 7.74175 536.389 16.1234C549.421 28.5234 553.902 43.1499 553.978 60.6093C554.031 73.5848 553.974 86.5644 553.956 99.5352C554.044 124.42 553.996 149.304 553.808 174.188L553.755 366.149L553.821 475.851L553.836 509.769C553.83 518.27 554.103 526.81 553.007 535.236C551.44 547.318 546.962 558.242 538.484 567.101C529.666 576.318 518.264 582.431 505.578 584.173C500.874 584.819 495.303 584.844 490.536 584.942L191.704 584.797L97.8129 584.935L70.7672 584.982C63.9887 584.992 55.7174 585.158 49.0623 584.242C37.7381 582.67 27.1597 577.692 18.7301 569.976C-3.20926 550.086 0.155472 522.987 0.222986 496.366L0.252507 443.952L0.386906 251.362L0.268204 115.633L0.185933 74.6835C0.16458 68.526 -0.199058 57.0123 0.467922 51.5113C1.87348 39.1738 7.182 27.6067 15.6207 18.493C29.1851 3.79502 43.2856 0.824649 62.2475 0.100289Z" fill="#AADE16"/>
<path d="M171.196 323.639C171.425 323.608 171.721 323.696 171.974 323.743C172.474 324.932 172.178 425.091 172.201 433.95C200.412 434.38 229.442 434.113 257.729 434.211C258.036 443.471 257.755 454.37 257.744 463.722L257.774 507.058L186.205 507.089L99.0683 507.086L98.6836 331.908C106.717 330.65 116.456 329.821 124.688 328.883L171.196 323.639Z" fill="#27262A"/>
<path d="M469.999 304.832C470.414 304.964 470.175 304.835 470.549 305.438C469.588 349.328 456.641 391.151 429.93 426.343C403.374 461.996 365.782 487.889 322.987 500.003C312.593 502.912 301.468 504.864 290.772 506.339C290.423 503.116 289.899 499.997 289.384 496.799L279.141 433.3C310.496 428.942 332.552 420.305 356.135 398.661C383.339 373.693 394.669 342.465 396.377 306.574L469.999 304.832Z" fill="#27262A"/>
<path d="M287.366 101.65C318.417 106.566 342.508 112.506 370.101 128.997C405.934 150.31 434.35 182.113 451.496 220.099C454.19 225.977 459.186 237.678 460.766 243.947C463.877 252.492 466.104 262.679 467.825 271.612C461.469 272.927 455.097 273.909 448.732 275.128C431.178 278.256 411.684 281.481 394.344 285.3C382.257 224.986 339.535 183.403 278.203 175.498C278.765 168.835 279.798 161.716 280.574 155.042C282.643 137.243 285.303 119.444 287.366 101.65Z" fill="#27262A"/>
<path d="M252.443 99.8713C253.199 99.7703 252.915 99.7646 253.661 99.9676C253.997 101.129 254.472 114.208 254.587 116.401C255.58 135.418 256.468 154.44 257.249 173.466C237.653 173.165 215.206 176.27 195.562 178.215C185.401 179.22 177.331 179.715 167.775 185.23C163.89 182.315 158.411 176.224 154.852 172.454C148.986 166.192 143.074 159.973 137.117 153.798C124.957 141.056 112.687 128.419 100.309 115.888C106.406 114.887 113.44 114.247 119.677 113.547L152.903 109.837C186.676 106.042 218.553 102.413 252.443 99.8713Z" fill="#27262A"/>
<path d="M99.09 155.102C100.414 155.875 105.095 160.19 106.44 161.407L120.059 173.798C137.581 189.65 154.97 205.647 172.225 221.788C172.015 230.898 172.163 240.589 172.145 249.738L172.048 302.161C169.495 302.529 157.228 301.923 153.835 301.885L98.9883 300.95L99.09 155.102Z" fill="#27262A"/>
</svg>
